<svg width="20" height="20" viewBox="0 0 20 20" fill="none" xmlns="http://www.w3.org/2000/svg">
<path fill-rule="evenodd" clip-rule="evenodd" d="M17.2727 7.87871C15.7665 7.87871 14.5455 9.09975 14.5455 10.606C14.5455 12.1122 15.7665 13.3333 17.2727 13.3333C18.779 13.3333 20 12.1122 20 10.606C20 9.09975 18.779 7.87871 17.2727 7.87871ZM10 7.87871C8.49377 7.87871 7.27273 9.09975 7.27273 10.606C7.27273 12.1122 8.49377 13.3333 10 13.3333C11.5062 13.3333 12.7273 12.1122 12.7273 10.606C12.7273 9.09975 11.5062 7.87871 10 7.87871ZM0 10.606C0 9.09975 1.22104 7.87871 2.72727 7.87871C4.2335 7.87871 5.45455 9.09975 5.45455 10.606C5.45455 12.1122 4.2335 13.3333 2.72727 13.3333C1.22104 13.3333 0 12.1122 0 10.606Z" fill="#495057"/>
</svg>
